<svg width="36" height="36" viewBox="0 0 36 36" fill="none" xmlns="http://www.w3.org/2000/svg">
<circle cx="18" cy="18" r="17" stroke="#69A042" stroke-width="2"/>
<path d="M20.9707 18.5675C21.7589 17.9507 22.3342 17.105 22.6166 16.148C22.899 15.191 22.8744 14.1702 22.5463 13.2277C22.2182 12.2852 21.6028 11.4679 20.7859 10.8894C19.9689 10.3109 18.991 10 17.9881 10C16.9852 10 16.0072 10.3109 15.1903 10.8894C14.3733 11.4679 13.758 12.2852 13.4298 13.2277C13.1017 14.1702 13.0772 15.191 13.3595 16.148C13.6419 17.105 14.2172 17.9507 15.0054 18.5675C13.6548 19.1056 12.4764 19.9981 11.5958 21.1499C10.7151 22.3017 10.1653 23.6696 10.0048 25.1077C9.99324 25.2127 10.0025 25.3189 10.0322 25.4204C10.0619 25.5218 10.1113 25.6164 10.1778 25.6988C10.312 25.8652 10.5071 25.9718 10.7204 25.9952C10.9336 26.0185 11.1474 25.9566 11.3147 25.8232C11.4821 25.6897 11.5893 25.4956 11.6128 25.2836C11.7893 23.7206 12.5386 22.2772 13.7177 21.229C14.8967 20.1807 16.4227 19.6013 18.0042 19.6013C19.5856 19.6013 21.1116 20.1807 22.2906 21.229C23.4697 22.2772 24.219 23.7206 24.3956 25.2836C24.4174 25.48 24.5117 25.6615 24.6601 25.7929C24.8086 25.9243 25.0008 25.9964 25.1995 25.9952H25.2879C25.4987 25.9711 25.6913 25.8651 25.8238 25.7003C25.9563 25.5356 26.018 25.3254 25.9954 25.1157C25.8342 23.6735 25.2814 22.3021 24.3962 21.1485C23.5111 19.995 22.3269 19.1027 20.9707 18.5675ZM17.9881 17.9998C17.3521 17.9998 16.7303 17.8122 16.2015 17.4608C15.6726 17.1094 15.2605 16.6099 15.0171 16.0255C14.7737 15.4411 14.71 14.7981 14.8341 14.1777C14.9581 13.5573 15.2644 12.9875 15.7142 12.5402C16.1639 12.0929 16.7369 11.7883 17.3607 11.6649C17.9845 11.5415 18.6311 11.6049 19.2187 11.8469C19.8063 12.089 20.3086 12.4989 20.6619 13.0248C21.0153 13.5508 21.2039 14.1691 21.2039 14.8016C21.2039 15.6498 20.8651 16.4633 20.262 17.0631C19.6589 17.6628 18.841 17.9998 17.9881 17.9998Z" fill="#2F2D25"/>
</svg>
