<svg width="19" height="24" viewBox="0 0 19 24" fill="none" xmlns="http://www.w3.org/2000/svg">
<path d="M9.33333 0C6.85798 0 4.48401 1.01142 2.73367 2.81177C0.983331 4.61211 0 7.0539 0 9.59997C0 16.0799 8.225 23.3999 8.575 23.7119C8.78632 23.8978 9.05525 24 9.33333 24C9.61141 24 9.88034 23.8978 10.0917 23.7119C10.5 23.3999 18.6667 16.0799 18.6667 9.59997C18.6667 7.0539 17.6833 4.61211 15.933 2.81177C14.1827 1.01142 11.8087 0 9.33333 0ZM9.33333 21.1799C6.84833 18.7799 2.33333 13.608 2.33333 9.59997C2.33333 7.69042 3.07083 5.85907 4.38359 4.50882C5.69634 3.15856 7.47682 2.39999 9.33333 2.39999C11.1898 2.39999 12.9703 3.15856 14.2831 4.50882C15.5958 5.85907 16.3333 7.69042 16.3333 9.59997C16.3333 13.608 11.8183 18.7919 9.33333 21.1799ZM9.33333 4.79998C8.41035 4.79998 7.5081 5.0815 6.74067 5.60893C5.97324 6.13636 5.3751 6.88601 5.02189 7.76309C4.66869 8.64018 4.57627 9.60529 4.75633 10.5364C4.9364 11.4675 5.38086 12.3228 6.0335 12.9941C6.68615 13.6654 7.51767 14.1225 8.42291 14.3077C9.32816 14.4929 10.2665 14.3979 11.1192 14.0346C11.9719 13.6713 12.7007 13.056 13.2135 12.2667C13.7263 11.4773 14 10.5493 14 9.59997C14 8.32693 13.5083 7.10604 12.6332 6.20587C11.758 5.3057 10.571 4.79998 9.33333 4.79998ZM9.33333 12C8.87184 12 8.42072 11.8592 8.037 11.5955C7.65329 11.3318 7.35422 10.9569 7.17761 10.5184C7.00101 10.0799 6.9548 9.59731 7.04483 9.13175C7.13487 8.6662 7.3571 8.23856 7.68342 7.90292C8.00974 7.56727 8.4255 7.3387 8.87812 7.24609C9.33074 7.15349 9.7999 7.20102 10.2263 7.38267C10.6526 7.56431 11.017 7.87193 11.2734 8.2666C11.5298 8.66128 11.6667 9.12529 11.6667 9.59997C11.6667 10.2365 11.4208 10.8469 10.9832 11.297C10.5457 11.7471 9.95217 12 9.33333 12Z" fill="#69A042"/>
</svg>
