<svg width="80" height="80" viewBox="0 0 80 80" fill="none" xmlns="http://www.w3.org/2000/svg">
<path fill-rule="evenodd" clip-rule="evenodd" d="M40 80C62.0914 80 80 62.0914 80 40C80 17.9086 62.0914 0 40 0C17.9086 0 0 17.9086 0 40C0 62.0914 17.9086 80 40 80ZM40.4914 21.8275C40.2084 21.5149 39.7829 21.3333 39.3333 21.3333C38.8838 21.3333 38.4582 21.5149 38.1753 21.8275L26.9989 34.1745C26.4809 34.7468 26.5795 35.5864 27.219 36.0498C27.8586 36.5133 28.7969 36.4251 29.3149 35.8529L37.8431 26.4314V57.3333C37.8431 58.0697 38.5103 58.6667 39.3333 58.6667C40.1563 58.6667 40.8235 58.0697 40.8235 57.3333V26.4314L49.3517 35.8529C49.8697 36.4251 50.8081 36.5133 51.4477 36.0498C52.0872 35.5864 52.1858 34.7468 51.6678 34.1745L40.4914 21.8275Z" fill="#C4E0A6"/>
</svg>
