<?xml version="1.0" encoding="UTF-8"?>
<svg xmlns="http://www.w3.org/2000/svg" viewBox="0 0 512 512" width="512" height="512"><g id="Fill_out_line" data-name="Fill out line"><path d="M447.13,269.93a48.24388,48.24388,0,0,1,14.15,11.84,48.00605,48.00605,0,0,1-45.29,77.56v.01c.01.22.01.44.01.66a32,32,0,0,1-64,.01,80.00922,80.00922,0,0,1-130.94-4.2,64.02748,64.02748,0,0,1-112.37-11.72A56.00163,56.00163,0,0,1,50.17,248.6a64.12047,64.12047,0,0,1,31.97-73.22A32.00721,32.00721,0,0,1,104,120a30.83959,30.83959,0,0,1,3.61.21,31.7314,31.7314,0,0,1,14.98,5.73A64.00446,64.00446,0,0,1,184,80a39.98216,39.98216,0,0,1,68.42-28.14,48.01348,48.01348,0,0,1,90.8,28.8A39.99816,39.99816,0,0,1,376,120c0,.22,0,.45-.01.67a48.02786,48.02786,0,0,1,49.74,23.61A47.30037,47.30037,0,0,1,431.34,160.01c.22-.01.44-.01.66-.01a56.00718,56.00718,0,0,1,15.13,109.93Z" style="fill:#4ba477"/><circle cx="144" cy="216" r="24" style="fill:#e44b4d"/><circle cx="112" cy="352" r="24" style="fill:#e44b4d"/><circle cx="392" cy="304" r="24" style="fill:#e44b4d"/><circle cx="288" cy="160" r="24" style="fill:#e44b4d"/><path d="M231.27,419.17a114.80461,114.80461,0,0,0,3.96-47.3L233.84,360.69a114.9131,114.9131,0,0,0-21.15-53.42,46.50973,46.50973,0,0,0,25.25-36.18l28.2,22.56,14.02-56.09A36.836,36.836,0,0,0,294.27,232.75a37.21857,37.21857,0,0,0,27.28,31.73L308.99,299A196.032,196.032,0,0,0,339.789,488H210.62591Z" style="fill:#c4965c"/><path d="M128,488l1.24874-2.49749A89.16641,89.16641,0,0,0,136,424v0l5.70032,3.42019A70.64754,70.64754,0,0,1,176,488v0Z" style="fill:#4ba477"/><path d="M208,488l-3.5624-28.49922A66.85,66.85,0,0,0,168,408l0,0v0a51.72571,51.72571,0,0,1-6.03292,45.04935L160,456v32Z" style="fill:#349966"/><path d="M192,488V472a47.99993,47.99993,0,0,1,9.6-28.8l0,0A48,48,0,0,1,240,424h8l0,0a95.26659,95.26659,0,0,0-16,52.84436V488Z" style="fill:#4ba477"/><path d="M336,488V472a47.99993,47.99993,0,0,0-9.6-28.8l0,0A48,48,0,0,0,288,424h-8l0,0a95.26659,95.26659,0,0,1,16,52.84436V488Z" style="fill:#4ba477"/><path d="M320,488l3.5624-28.49922A66.85,66.85,0,0,1,360,408l0,0v0a51.72571,51.72571,0,0,0,6.03292,45.04935L368,456v32Z" style="fill:#349966"/><path d="M400,488l-1.24874-2.49749A89.16641,89.16641,0,0,1,392,424v0l-5.70032,3.42019A70.64754,70.64754,0,0,0,352,488v0Z" style="fill:#4ba477"/><path d="M252.42,51.86A47.77284,47.77284,0,0,0,248,72H232a63.68954,63.68954,0,0,1,7-29.09A39.895,39.895,0,0,1,252.42,51.86Z" style="fill:#349966"/><path d="M122.59,125.94A64.14854,64.14854,0,0,0,120,144H104a79.62724,79.62724,0,0,1,3.61-23.79A31.7314,31.7314,0,0,1,122.59,125.94Z" style="fill:#349966"/><path d="M191.75146,320.24854a55.00263,55.00263,0,0,1-9.07617-.75391l2.64942-15.7793a38.53045,38.53045,0,0,0,44.91845-37.95849,38.30642,38.30642,0,0,0-6.437-21.31934l13.3125-8.875a54.4985,54.4985,0,0,1-45.36719,84.686Z" style="fill:#349966"/><path d="M331.23,273.75977a45.15484,45.15484,0,0,1-42.541-29.87793,45.27475,45.27475,0,0,1-37.61572-5.14649l8.63379-13.4707a29.239,29.239,0,0,0,30.50391.59131,8.00011,8.00011,0,0,1,12.00927,6.00342A29.19749,29.19749,0,0,0,347.52539,252.79l8.94922,13.26269A44.963,44.963,0,0,1,331.23,273.75977Z" style="fill:#349966"/><path d="M153.85651,185.56012a46.37011,46.37011,0,0,1,11.80023-19.90338l-11.31348-11.31348a62.19487,62.19487,0,0,0-16.76752,30.30506,32.015,32.015,0,1,0,16.28077.9118ZM144,232a15.98644,15.98644,0,0,1-8-29.835V208h16v-5.835A15.98644,15.98644,0,0,1,144,232Z"/><path d="M392,336a32.00175,32.00175,0,0,0,6.42426-63.35168,62.1946,62.1946,0,0,0-16.76752-30.30506l-11.31348,11.31348a46.37011,46.37011,0,0,1,11.80023,19.90338A31.9975,31.9975,0,0,0,392,336Zm-8-45.835V296h16v-5.835a16,16,0,1,1-16,0Z"/><path d="M288,192a32.00175,32.00175,0,0,0,6.42426-63.35168,62.1946,62.1946,0,0,0-16.76752-30.30506l-11.31348,11.31348a46.37011,46.37011,0,0,1,11.80023,19.90338A31.9975,31.9975,0,0,0,288,192Zm-8-45.835V152h16v-5.835a16,16,0,1,1-16,0Z"/><path d="M399.76123,425.94043a8.00018,8.00018,0,0,0-11.87744-8.80029l-5.69971,3.42041a77.94572,77.94572,0,0,0-15.91235,12.64691,43.82809,43.82809,0,0,1,1.31763-22.67767,7.99982,7.99982,0,0,0-11.167-9.68506,74.73789,74.73789,0,0,0-31.25055,29.321,56.34824,56.34824,0,0,0-11.30224-7.77527,188.31046,188.31046,0,0,1-5.96576-24.679,88.75985,88.75985,0,0,0,39.7417-21.03961,39.99947,39.99947,0,0,0,75.55224-8.67774Q423.59839,368,424,368a56.00216,56.00216,0,0,0,39.12158-96.07178,64.005,64.005,0,0,0-25.35693-119.6709A55.805,55.805,0,0,0,384,112q-.33178,0-.66406.00391a47.95452,47.95452,0,0,0-31.40137-37.29248Q351.99976,73.355,352,72A55.99882,55.99882,0,0,0,250.208,39.76758a48.02875,48.02875,0,0,0-73.60449,32.61816,72.54075,72.54075,0,0,0-58.34082,42.22412,40.00178,40.00178,0,0,0-48.06788,58.75635A71.85328,71.85328,0,0,0,40,232a72.58658,72.58658,0,0,0,1.19092,13.10107A64.00556,64.00556,0,0,0,80,360c.33563,0,.67188-.01251,1.00787-.01776a31.974,31.974,0,0,0,46.8498,19.79468,72.026,72.026,0,0,0,93.009-10.88678,88.351,88.351,0,0,0,6.77515,7.13775,106.25914,106.25914,0,0,1-4.03052,40.83832l-.53986,1.7992a56.47151,56.47151,0,0,0-20.26379,11.51843,74.574,74.574,0,0,0-31.23-29.33911,7.99982,7.99982,0,0,0-11.167,9.68506,43.82926,43.82926,0,0,1,1.31745,22.6773,77.94284,77.94284,0,0,0-15.91168-12.64654l-5.7002-3.42041a8.00018,8.00018,0,0,0-11.87744,8.80029A81.204,81.204,0,0,1,123.0022,480H16v16H496V480H404.99756A81.20436,81.20436,0,0,1,399.76123,425.94043ZM381.45947,440.814A97.27392,97.27392,0,0,0,387.62921,480H360.542A63.13792,63.13792,0,0,1,381.45947,440.814Zm-32.09326-15.70654a59.931,59.931,0,0,0,5.21,23.6333A78.952,78.952,0,0,0,344.419,480H329.06207l2.43842-19.50684A58.73513,58.73513,0,0,1,349.36621,425.10742ZM318.314,445.92224a75.18681,75.18681,0,0,0-2.68952,12.58655L312.938,480H304v-3.15576a102.90928,102.90928,0,0,0-10.01807-44.38819A40.26861,40.26861,0,0,1,318.314,445.92224ZM288,416h-8a8,8,0,0,0-6.65625,12.4375A86.9962,86.9962,0,0,1,288,476.84424V480H240v-3.15576a86.9923,86.9923,0,0,1,14.65625-48.40674A8,8,0,0,0,248,416h-7.56573a122.121,122.121,0,0,0,2.73858-45.12646l-1.397-11.17432a123.42323,123.42323,0,0,0-17.813-50.02625,54.756,54.756,0,0,0,18.711-24.54785l18.46673,14.77381a7.99995,7.99995,0,0,0,12.75879-4.30664l12.78888-51.15461c.67078-.17181,1.33881-.35351,2.00067-.55584a45.153,45.153,0,0,0,22.64411,25.27685L301.47412,296.271A203.55,203.55,0,0,0,295.577,416.54321,55.27746,55.27746,0,0,0,288,416ZM96,352a15.99665,15.99665,0,0,1,8-13.835V344h16v-5.835A15.99218,15.99218,0,1,1,96,352Zm118.43457-.67334A56.01681,56.01681,0,0,1,168,376a55.35949,55.35949,0,0,1-28.44861-7.75049,31.96882,31.96882,0,0,0-17.69488-46.68939,46.37011,46.37011,0,0,1,11.80023-19.90338l-11.31348-11.31348a62.19487,62.19487,0,0,0-16.76752,30.30506,32.10657,32.10657,0,0,0-24.558,23.3338C80.67841,343.9892,80.33905,344,80,344a48.004,48.004,0,0,1-25.5625-88.6333,7.99963,7.99963,0,0,0,3.4624-8.82715,56.12163,56.12163,0,0,1,27.97852-64.08691l.01428-.00867A56.10971,56.10971,0,0,1,112,176V160a72.32691,72.32691,0,0,0-27.803,5.57361A23.77678,23.77678,0,0,1,80,152a24.0064,24.0064,0,0,1,33.3916-22.08942A72.36171,72.36171,0,0,0,112,144h16a56.08173,56.08173,0,0,1,2.24115-15.73846c.00745-.0246.01868-.04737.02594-.07209a56.01058,56.01058,0,0,1,90.772-26.1914L231.627,90.00195a71.88179,71.88179,0,0,0-38.7453-17.43878A32.04978,32.04978,0,0,1,224,48a31.717,31.717,0,0,1,18.91174,6.18665A55.72419,55.72419,0,0,0,240,72h16a39.74881,39.74881,0,0,1,3.14014-15.56738l-.13349-.05646a7.96814,7.96814,0,0,0,.674-1.15741A40.00592,40.00592,0,0,1,336,72a40.60474,40.60474,0,0,1-.65137,7.231l-.00061.00451a39.85766,39.85766,0,0,1-9.53113,19.42908l11.92188,10.6709a55.95658,55.95658,0,0,0,11.06464-18.67169A31.96228,31.96228,0,0,1,367.522,114.48065a55.47626,55.47626,0,0,0-14.49365,6.85773l8.85938,13.32324a39.501,39.501,0,0,1,15.38244-6.09784c.01837-.003.03674-.00305.05506-.00616a40.06273,40.06273,0,0,1,43.75866,24.37945,63.51518,63.51518,0,0,0-25.661,10.539l9.1543,13.12305a48.00681,48.00681,0,1,1,40.39648,85.62695l-.02038.00739A48.13615,48.13615,0,0,1,432,264v16a64.26856,64.26856,0,0,0,13.83746-1.511,40.0046,40.0046,0,0,1-28.51226,72.95337c-.01832-.00311-.03669-.00311-.055-.0061a39.59081,39.59081,0,0,1-13.26434-4.78247l-8.01172,13.84961a55.60418,55.60418,0,0,0,11.36591,4.98205,23.9974,23.9974,0,0,1-47.36-5.4801,8.00006,8.00006,0,0,0-14.39453-4.80322,72.60691,72.60691,0,0,1-39.73975,26.53351,189.25491,189.25491,0,0,1,10.64551-79.99689l10.25641-28.20526c1.46991.144,2.957.22626,4.46234.22626a44.963,44.963,0,0,0,25.24463-7.707L347.52539,252.79a29.19749,29.19749,0,0,1-45.30518-20.93066,8.00011,8.00011,0,0,0-12.00927-6.00342,29.239,29.239,0,0,1-30.50391-.59131l-8.63379,13.4707a44.99918,44.99918,0,0,0,18.8523,6.78266l-8.52466,34.09869-15.20081-12.16095c.01746-.56555.04309-1.12921.04309-1.69891a54.25194,54.25194,0,0,0-9.12451-30.19434l-13.3125,8.875a38.499,38.499,0,0,1-32.05469,59.811,38.89314,38.89314,0,0,1-6.42675-.53321l-2.64942,15.7793a55.00263,55.00263,0,0,0,9.07617.75391,54.229,54.229,0,0,0,18.01349-3.07349,107.454,107.454,0,0,1,13.53266,30.96545,7.94077,7.94077,0,0,0-8.863,3.18616Zm19.5835,81.12939A102.90928,102.90928,0,0,0,224,476.84424V480H200v-8a39.98818,39.98818,0,0,1,34.01807-39.54395Zm-55.38428-7.35058a58.61776,58.61776,0,0,1,13.11182,18.50592A56.3923,56.3923,0,0,0,184,472v8h-.41895a78.9529,78.9529,0,0,0-10.15722-31.2594A59.92945,59.92945,0,0,0,178.63379,425.10547ZM146.54053,440.814A63.13792,63.13792,0,0,1,167.458,480H140.37073A97.27238,97.27238,0,0,0,146.54053,440.814Z"/></g></svg>
